<svg width="536.000000pt" height="93.000000pt" viewBox="0 0 536.000000 93.000000" xmlns="http://www.w3.org/2000/svg">
  <g transform="translate(0.000000,93.000000) scale(0.100000,-0.100000)" fill="#fefefe" stroke="none">
    <path d="M0 465 l0 -465 2680 0 2680 0 0 465 0 465 -2680 0 -2680 0 0 -465z
m4902 133 l79 -128 88 0 89 0 12 -15 12 -15 -12 -15 -12 -15 -88 0 -88 0 -82
-130 -82 -130 -18 0 c-33 0 -31 16 10 124 22 59 40 113 40 121 l0 15 -75 0
-75 0 -19 -39 -20 -38 -23 -6 c-32 -9 -33 -3 -9 52 26 62 26 70 -1 126 -24 50
-23 57 10 48 l23 -6 20 -38 19 -39 75 0 75 0 0 18 c0 9 -18 63 -40 120 -42
107 -43 125 -8 120 l21 -3 79 -127z m-2255 -43 c48 -29 73 -68 73 -115 0 -47
-25 -86 -73 -115 l-44 -25 -34 0 c-70 0 -139 70 -139 140 0 70 69 140 139 140
l34 0 44 -25z m-337 -115 l0 -40 -1003 0 -1003 0 -12 12 c-15 15 -15 41 0 56
l12 12 1003 0 1003 0 0 -40z m2060 0 l0 -40 -765 0 -765 0 0 40 0 40 765 0
765 0 0 -40z" />
  </g>
  <g transform="translate(0.000000,93.000000) scale(0.100000,-0.100000)" fill="#69687f" stroke="none">
    <path d="M282 478 c-15 -15 -15 -61 0 -76 l12 -12 1013 0 1013 0 0 50 0 50
-1013 0 -1013 0 -12 -12z" />
    <path d="M2830 440 l0 -50 775 0 775 0 0 50 0 50 -775 0 -775 0 0 -50z" />
  </g>
  <g transform="translate(0.000000,93.000000) scale(0.100000,-0.100000)" fill="#898194" stroke="none">
    <path d="M4764 725 l-6 -16 32 -87 c18 -48 39 -99 47 -114 l14 -28 -71 0 -70
0 -19 39 -20 38 -23 7 c-55 14 -62 -5 -27 -77 l21 -44 -21 -48 c-11 -26 -21
-54 -21 -61 l0 -14 35 0 35 0 20 40 20 40 66 0 66 0 -4 -12 c-3 -7 -22 -59
-43 -115 l-38 -101 6 -16 6 -16 30 0 29 0 82 130 81 129 91 3 91 3 11 18 11
17 -11 18 -11 17 -93 5 -92 5 -78 125 -77 125 -32 3 -31 3 -6 -16z" />
  </g>
  <g transform="translate(0.000000,93.000000) scale(0.100000,-0.100000)" fill="#c8435b" stroke="none">
    <path d="M2492 570 c-18 -11 -41 -34 -52 -52 l-20 -33 0 -45 0 -45 20 -33 c11
-18 34 -41 52 -52 l33 -20 44 0 44 0 44 25 c51 30 73 68 73 125 0 57 -22 95
-73 125 l-44 25 -44 0 -44 0 -33 -20z" />
  </g>
  <g transform="translate(0.000000,93.000000) scale(0.100000,-0.100000)" fill="#737288" stroke="none">
    <path d="M382 483 c32 -2 84 -2 115 0 32 2 6 3 -57 3 -63 0 -89 -1 -58 -3z" />
    <path d="M2188 483 l122 -4 0 -39 c0 -22 3 -40 8 -40 4 0 6 20 4 45 l-4 45
-127 -2 -126 -2 123 -3z" />
    <path d="M2963 483 c31 -2 83 -2 115 0 31 2 5 3 -58 3 -63 0 -89 -1 -57 -3z" />
    <path d="M4263 483 l109 -4 -4 -44 c-2 -25 0 -45 4 -45 5 0 8 23 8 50 l0 50
-112 -2 -113 -2 108 -3z" />
    <path d="M922 393 c247 -2 649 -2 895 0 247 1 45 2 -447 2 -492 0 -694 -1
-448 -2z" />
    <path d="M3328 393 c189 -2 495 -2 680 0 185 1 31 2 -343 2 -374 0 -526 -1
-337 -2z" />
  </g>
  <g transform="translate(0.000000,93.000000) scale(0.100000,-0.100000)" fill="#706f85" stroke="none">
    <path d="M923 483 c213 -2 561 -2 775 0 213 1 38 2 -388 2 -426 0 -601 -1
-387 -2z" />
    <path d="M3383 483 c148 -2 386 -2 530 0 144 1 24 2 -268 2 -291 0 -409 -1
-262 -2z" />
  </g>
  <g transform="translate(0.000000,93.000000) scale(0.100000,-0.100000)" fill="#918a9b" stroke="none">
    <path d="M4764 725 c-3 -8 0 -31 7 -52 7 -21 14 -33 16 -26 2 7 0 21 -6 32 -6
11 -11 26 -11 35 l0 15 28 4 27 4 -28 2 -28 1 -5 -15z" />
    <path d="M4840 489 l0 -11 -70 4 c-39 2 -70 0 -70 -4 0 -5 36 -8 80 -8 l80 0
0 15 c0 8 -4 15 -10 15 -5 0 -10 -5 -10 -11z" />
    <path d="M5018 473 c18 -2 45 -2 60 0 15 2 0 4 -33 4 -33 0 -45 -2 -27 -4z" />
    <path d="M4700 403 c0 -5 31 -7 70 -5 l70 4 0 -12 c0 -6 5 -8 10 -5 6 4 8 11
5 16 -7 11 -155 12 -155 2z" />
    <path d="M4980 402 c0 -4 21 -6 48 -4 75 5 82 10 15 11 -35 0 -63 -2 -63 -7z" />
    <path d="M4764 186 c-17 -68 63 -62 97 7 l10 22 -28 -34 -29 -33 -20 4 -19 4
3 27 c3 34 -6 35 -14 3z" />
  </g>
  <g transform="translate(0.000000,93.000000) scale(0.100000,-0.100000)" fill="#77768b" stroke="none">
    <path d="M368 393 c23 -2 61 -2 85 0 23 2 4 4 -43 4 -47 0 -66 -2 -42 -4z" />
    <path d="M2873 393 c26 -2 67 -2 90 0 23 2 2 3 -48 3 -49 0 -68 -1 -42 -3z" />
  </g>
  <g transform="translate(0.000000,93.000000) scale(0.100000,-0.100000)" fill="#8d8598" stroke="none">
    <path d="M4803 590 c41 -107 46 -120 51 -120 8 0 1 25 -29 95 -37 91 -54 109
-22 25z" />
    <path d="M4961 374 c-28 -48 -20 -56 9 -9 12 20 20 38 17 41 -2 3 -14 -12 -26
-32z" />
  </g>
  <g transform="translate(0.000000,93.000000) scale(0.100000,-0.100000)" fill="#f7f6f7" stroke="none" />
  <g transform="translate(0.000000,93.000000) scale(0.100000,-0.100000)" fill="#c1bdc7" stroke="none" />
  <g transform="translate(0.000000,93.000000) scale(0.100000,-0.100000)" fill="#eeedf0" stroke="none" />
  <g transform="translate(0.000000,93.000000) scale(0.100000,-0.100000)" fill="#aca6b3" stroke="none">
    <path d="M5125 473 l40 -4 13 -16 c6 -9 12 -12 12 -7 0 6 -5 15 -12 22 l-12
12 -40 -2 -41 -1 40 -4z" />
  </g>
  <g transform="translate(0.000000,93.000000) scale(0.100000,-0.100000)" fill="#cf5e73" stroke="none" />
  <g transform="translate(0.000000,93.000000) scale(0.100000,-0.100000)" fill="#d5d2d9" stroke="none" />
  <g transform="translate(0.000000,93.000000) scale(0.100000,-0.100000)" fill="#e3e2e6" stroke="none" />
  <g transform="translate(0.000000,93.000000) scale(0.100000,-0.100000)" fill="#ebbfc7" stroke="none" />
  <g transform="translate(0.000000,93.000000) scale(0.100000,-0.100000)" fill="#a59fad" stroke="none" />
  <g transform="translate(0.000000,93.000000) scale(0.100000,-0.100000)" fill="#7c7b8f" stroke="none" />
  <g transform="translate(0.000000,93.000000) scale(0.100000,-0.100000)" fill="#dd8c9a" stroke="none" />
  <g transform="translate(0.000000,93.000000) scale(0.100000,-0.100000)" fill="#f0ccd2" stroke="none" />
  <g transform="translate(0.000000,93.000000) scale(0.100000,-0.100000)" fill="#f6e3e7" stroke="none" />
  <g transform="translate(0.000000,93.000000) scale(0.100000,-0.100000)" fill="#f9ecee" stroke="none" />
  <g transform="translate(0.000000,93.000000) scale(0.100000,-0.100000)" fill="#e7b0ba" stroke="none" />
  <g transform="translate(0.000000,93.000000) scale(0.100000,-0.100000)" fill="#afaeba" stroke="none" />
</svg>